<svg xmlns="http://www.w3.org/2000/svg" width="28" height="28" viewBox="0 0 24 24" fill="#25D366">
  <path d="M12.04 2C6.58 2 2.16 6.41 2.16 11.87c0 1.9.5 3.73 1.46 5.35L2 22l4.95-1.6a9.8 9.8 0 005.09 1.4h.01c5.46 0 9.88-4.41 9.88-9.87C21.92 6.41 17.5 2 12.04 2zm5.75 13.93c-.24.67-1.41 1.28-1.94 1.34-.5.06-1.13.09-1.82-.13-.42-.14-.96-.32-1.66-.62-2.92-1.26-4.82-4.2-4.96-4.4-.14-.2-1.18-1.56-1.18-2.98s.74-2.11 1-2.4c.26-.28.57-.35.76-.35.19 0 .38 0 .55.01.18.01.41-.07.64.49.24.57.81 1.97.88 2.11.07.14.12.31.02.5-.1.19-.15.31-.29.48-.14.17-.29.38-.41.51-.14.14-.29.29-.13.57.17.28.73 1.2 1.56 1.94 1.07.96 1.98 1.26 2.26 1.4.28.14.44.12.61-.07.17-.19.72-.84.91-1.13.19-.28.38-.24.64-.14.26.1 1.64.77 1.92.91.28.14.47.21.54.33.07.12.07.67-.17 1.34z"></path>
</svg>